<svg width="12" height="12" viewBox="0 0 12 12" fill="none" xmlns="http://www.w3.org/2000/svg">
<path d="M3.37509 4.875C2.96025 4.875 2.62509 5.21016 2.62509 5.625C2.62509 6.03984 2.96025 6.375 3.37509 6.375C3.78993 6.375 4.12509 6.03984 4.12509 5.625C4.12509 5.21016 3.78993 4.875 3.37509 4.875ZM6.00009 4.875C5.58525 4.875 5.25009 5.21016 5.25009 5.625C5.25009 6.03984 5.58525 6.375 6.00009 6.375C6.41493 6.375 6.75009 6.03984 6.75009 5.625C6.75009 5.21016 6.41493 4.875 6.00009 4.875ZM8.62509 4.875C8.21025 4.875 7.87509 5.21016 7.87509 5.625C7.87509 6.03984 8.21025 6.375 8.62509 6.375C9.03993 6.375 9.37509 6.03984 9.37509 5.625C9.37509 5.21016 9.03993 4.875 8.62509 4.875ZM6.00009 0.75C2.68603 0.75 9.06609e-05 2.93203 9.06609e-05 5.625C9.06609e-05 6.74062 0.466497 7.7625 1.23993 8.58516C0.890716 9.50859 0.164153 10.2914 0.152434 10.3008C-0.00225309 10.4648 -0.0444406 10.7039 0.0446219 10.9102C0.133684 11.1164 0.337591 11.25 0.562591 11.25C2.004 11.25 3.14072 10.6477 3.82275 10.1648C4.50009 10.3781 5.23134 10.5 6.00009 10.5C9.31415 10.5 12.0001 8.31797 12.0001 5.625C12.0001 2.93203 9.31415 0.75 6.00009 0.75ZM6.00009 9.375C5.37431 9.375 4.75556 9.27891 4.16259 9.09141L3.63056 8.92266L3.17353 9.24609C2.83837 9.48281 2.379 9.74766 1.82587 9.92578C1.99697 9.64219 2.16337 9.32344 2.29228 8.98359L2.54072 8.325L2.0579 7.81406C1.63368 7.36172 1.12509 6.61406 1.12509 5.625C1.12509 3.55781 3.31181 1.875 6.00009 1.875C8.68837 1.875 10.8751 3.55781 10.8751 5.625C10.8751 7.69219 8.68837 9.375 6.00009 9.375Z" fill="#009688"/>
</svg>
