<svg width="12" height="12" viewBox="0 0 12 12" fill="none" xmlns="http://www.w3.org/2000/svg">
<g clip-path="url(#clip0)">
<path d="M6.00009 0.75C2.68603 0.75 9.06611e-05 2.93203 9.06611e-05 5.625C9.06611e-05 6.74063 0.466497 7.7625 1.23993 8.58516C0.890716 9.50859 0.164153 10.2914 0.152434 10.3008C-0.00225309 10.4648 -0.0444406 10.7039 0.0446219 10.9102C0.133684 11.1164 0.337591 11.25 0.562591 11.25C2.004 11.25 3.14072 10.6477 3.82275 10.1648C4.50009 10.3781 5.23134 10.5 6.00009 10.5C9.31415 10.5 12.0001 8.31797 12.0001 5.625C12.0001 2.93203 9.31415 0.75 6.00009 0.75ZM6.00009 9.375C5.37431 9.375 4.75556 9.27891 4.16259 9.09141L3.63056 8.92266L3.17353 9.24609C2.83837 9.48281 2.379 9.74766 1.82587 9.92578C1.99697 9.64219 2.16337 9.32344 2.29228 8.98359L2.54072 8.325L2.0579 7.81406C1.63368 7.36172 1.12509 6.61406 1.12509 5.625C1.12509 3.55781 3.31181 1.875 6.00009 1.875C8.68837 1.875 10.8751 3.55781 10.8751 5.625C10.8751 7.69219 8.68837 9.375 6.00009 9.375Z" fill="#009688"/>
<path d="M5.6355 7.24453C5.6355 6.88086 5.68062 6.59101 5.77085 6.375C5.86108 6.15898 6.03882 5.92246 6.30405 5.66543C6.57202 5.40566 6.74155 5.22109 6.81265 5.11172C6.92202 4.94492 6.97671 4.76445 6.97671 4.57031C6.97671 4.31328 6.91245 4.11777 6.78394 3.98379C6.65815 3.84707 6.47222 3.77871 6.22612 3.77871C5.99097 3.77871 5.80093 3.8457 5.65601 3.97968C5.51382 4.11093 5.44272 4.29004 5.44272 4.51699H4.44604C4.45151 4.033 4.61558 3.65019 4.93823 3.36855C5.26362 3.08691 5.69292 2.94609 6.22612 2.94609C6.77573 2.94609 7.20366 3.08554 7.50991 3.36445C7.8189 3.64336 7.97339 4.033 7.97339 4.5334C7.97339 4.9791 7.76558 5.41797 7.34995 5.85L6.84546 6.34629C6.66499 6.55136 6.57202 6.85078 6.56655 7.24453H5.6355ZM5.56577 8.52011C5.56577 8.35879 5.61636 8.2289 5.71753 8.13047C5.8187 8.02929 5.95542 7.97871 6.12769 7.97871C6.30269 7.97871 6.44077 8.03066 6.54194 8.13457C6.64312 8.23574 6.6937 8.36426 6.6937 8.52011C6.6937 8.67051 6.64448 8.79629 6.54605 8.89746C6.44761 8.99863 6.30815 9.04922 6.12769 9.04922C5.94722 9.04922 5.80776 8.99863 5.70933 8.89746C5.61362 8.79629 5.56577 8.67051 5.56577 8.52011Z" fill="#009688"/>
</g>
<defs>
<clipPath id="clip0">
<rect width="12" height="12" fill="white"/>
</clipPath>
</defs>
</svg>
